<?xml version="1.0" standalone="no"?><!DOCTYPE svg PUBLIC "-//W3C//DTD SVG 1.1//EN" "http://www.w3.org/Graphics/SVG/1.1/DTD/svg11.dtd"><svg t="1713956572726" class="icon" viewBox="0 0 1024 1024" version="1.1" xmlns="http://www.w3.org/2000/svg" p-id="7647" xmlns:xlink="http://www.w3.org/1999/xlink" width="200" height="200"><path d="M426.666667 469.333333V85.333333H128v384a85.333333 85.333333 0 0 0 85.333333 85.333334v384h128v-384a85.333333 85.333333 0 0 0 85.333334-85.333334z m85.333333 0c0 63.146667-34.304 118.314667-85.333333 147.84V938.666667a85.333333 85.333333 0 0 1-85.333334 85.333333H213.333333a85.333333 85.333333 0 0 1-85.333333-85.333333v-321.493334A170.581333 170.581333 0 0 1 42.666667 469.333333V85.333333a85.333333 85.333333 0 0 1 85.333333-85.333333h298.666667a85.333333 85.333333 0 0 1 85.333333 85.333333v384zM170.666667 85.333333h85.333333v256a42.666667 42.666667 0 1 1-85.333333 0V85.333333zM900.821333 0.085333C945.621333 1.834667 981.333333 39.338667 981.333333 85.333333v853.333334c0 47.146667-37.546667 85.333333-83.797333 85.333333h-83.797333c-46.250667 0-83.797333-38.186667-83.797334-85.333333v-254.890667C646.058667 642.218667 597.333333 556.544 597.333333 436.949333c0-127.402667 10.325333-223.36 43.178667-289.536C691.541333 44.586667 764.757333 0 855.637333 0H900.821333v0.085333z m-87.04 655.274667V938.666667h83.754667V85.333333h-41.898667c-59.648 0-103.765333 26.88-140.373333 100.565334-24.746667 49.877333-34.133333 137.386667-34.133333 251.050666 0 96.725333 37.845333 154.453333 103.808 177.834667a769.024 769.024 0 0 1 19.84 7.253333c3.626667 1.365333 5.034667 1.834667 5.674666 1.962667a21.333333 21.333333 0 0 0 3.285334 0.128v31.232zM298.666667 85.333333h85.333333v256a42.666667 42.666667 0 1 1-85.333333 0V85.333333z" fill="#8a8a8a" p-id="7648"></path></svg>